<svg width="1280" height="216" viewBox="0 0 1280 216" fill="none" xmlns="http://www.w3.org/2000/svg">
<path d="M107.874 0L215.748 108H107.874L215.748 216H107.874L0 108H107.874L0 0H107.874Z" fill="black"/>
<path d="M468.229 148.954C468.229 161.394 470.394 170.553 474.708 176.428C479.022 182.302 485.576 185.244 494.376 185.245C504.385 185.245 512.155 182.05 517.678 175.658C523.373 169.092 526.221 159.933 526.222 148.184V67.3102H553.664V205.2H528.034L527.707 182.788C524.93 189.221 521.081 194.538 516.13 198.724C508.363 205.118 498.35 208.311 486.096 208.311C472.288 208.311 461.238 203.738 452.954 194.579C444.842 185.248 440.786 172.372 440.786 155.957V67.3102H468.229V148.954Z" fill="black"/>
<path fill-rule="evenodd" clip-rule="evenodd" d="M978.607 64.1988C991.032 64.1994 1001.99 67.1414 1011.48 73.016C1020.98 78.7184 1028.31 87.011 1033.49 97.8961C1038.84 108.781 1041.52 121.912 1041.52 137.289V144.292H942.621C943.311 157.768 946.845 167.875 953.229 174.614C959.788 181.353 968.593 184.729 979.639 184.729C987.751 184.728 994.483 182.824 999.834 179.023C1005.18 175.221 1008.9 170.123 1010.97 163.73L1039.44 165.544C1035.82 178.331 1028.65 188.698 1017.95 196.646C1007.42 204.422 994.564 208.311 979.376 208.311C965.917 208.311 954.269 205.378 944.433 199.505C934.768 193.63 927.26 185.246 921.91 174.361C916.732 163.475 914.135 150.77 914.135 136.255C914.135 121.74 916.732 109.126 921.91 98.4129C927.26 87.5276 934.768 79.1439 944.433 73.2691C954.097 67.2226 965.491 64.1988 978.607 64.1988ZM978.607 87.5285C968.769 87.5285 960.658 90.6419 954.272 96.8625C948.058 102.91 944.174 111.806 942.621 123.557H1012.52C1011.65 111.288 1008.12 102.21 1001.91 96.3352C995.869 90.4607 988.098 87.5292 978.607 87.5285Z" fill="black"/>
<path d="M1119.03 64.1988C1130.94 64.199 1140.95 66.2745 1149.07 70.4215C1157.18 74.3957 1163.48 79.8371 1167.97 86.748C1172.62 93.4871 1175.55 101.094 1176.76 109.561L1148.55 111.111C1147.69 106.275 1145.95 102.132 1143.37 98.6766C1140.95 95.0478 1137.67 92.277 1133.53 90.3762C1129.39 88.3031 1124.46 87.2648 1118.77 87.2648C1109.97 87.2652 1103.4 88.9983 1099.09 92.4539C1094.78 95.9095 1092.62 100.405 1092.62 105.933C1092.62 110.077 1093.57 113.446 1095.47 116.037C1097.54 118.628 1100.82 120.795 1105.31 122.523C1109.79 124.078 1115.75 125.458 1123.17 126.668C1137.5 129.087 1148.72 132.109 1156.83 135.738C1164.94 139.194 1170.64 143.517 1173.92 148.7C1177.2 153.884 1178.84 160.192 1178.84 167.621C1178.84 176.261 1176.42 183.606 1171.59 189.654C1166.76 195.702 1160.1 200.366 1151.65 203.65C1143.19 206.759 1133.44 208.311 1122.39 208.311C1109.45 208.311 1098.49 206.326 1089.51 202.352C1080.71 198.379 1073.9 192.936 1069.07 186.026C1064.23 178.942 1061.47 170.819 1060.78 161.663L1089 160.365C1090.38 167.967 1093.66 174.014 1098.84 178.506C1104.01 182.998 1111.87 185.245 1122.39 185.245C1131.02 185.245 1137.85 183.865 1142.85 181.1C1147.86 178.336 1150.36 173.922 1150.36 167.875C1150.36 164.594 1149.49 161.83 1147.77 159.585C1146.22 157.166 1143.11 155.181 1138.45 153.626C1133.79 151.898 1126.88 150.256 1117.74 148.7C1104.1 146.109 1093.4 143.085 1085.64 139.63C1077.87 136.174 1072.35 131.761 1069.07 126.404C1065.79 121.048 1064.15 114.569 1064.15 106.966C1064.15 94.3522 1068.81 84.0655 1078.13 76.1168C1087.62 68.17 1101.26 64.1988 1119.03 64.1988Z" fill="black"/>
<path d="M330.016 179.539H419.591V205.2H302.047V21.1676H330.016V179.539Z" fill="black"/>
<path d="M647.221 116.817L680.1 67.3102H711.43L664.056 135.221L713.505 205.2H682.955L647.485 152.592L611.752 205.2H580.685L630.651 134.705L582.761 67.3102H613.311L647.221 116.817Z" fill="black"/>
<path d="M855.532 171.25V21.1676H883.501V205.2H846.735L763.112 58.493V205.2H735.153V21.1676H770.613L855.532 171.25Z" fill="black"/>
<path d="M1243.49 67.3102H1280V89.8594H1243.49V165.807C1243.49 172.2 1244.88 176.604 1247.64 179.023C1250.4 181.442 1254.63 182.651 1260.32 182.651H1280V205.2H1254.37C1241.25 205.2 1231.58 202.178 1225.37 196.13C1219.16 190.082 1216.04 180.66 1216.04 167.875V89.8594H1195.08V67.3102H1216.04V34.9102H1243.49V67.3102Z" fill="black"/>
</svg>
