<svg width="211" height="24" viewBox="0 0 211 24" fill="none" xmlns="http://www.w3.org/2000/svg">
<path fill-rule="evenodd" clip-rule="evenodd" d="M12 0H0L12 12H0L12 24H24L12 12H24L12 0Z" fill="#088868"/>
<path d="M34.064 21V3.96H36.656V20.04L35.288 18.624H44.96V21H34.064ZM51.125 21.288C49.845 21.288 48.821 20.864 48.053 20.016C47.301 19.152 46.925 17.96 46.925 16.44V8.232H49.469V15.792C49.469 16.944 49.669 17.792 50.069 18.336C50.469 18.88 51.077 19.152 51.893 19.152C52.821 19.152 53.541 18.856 54.053 18.264C54.581 17.656 54.845 16.808 54.845 15.72V8.232H57.389V21H55.013L54.965 17.664L55.325 17.808C55.101 18.928 54.629 19.792 53.909 20.4C53.189 20.992 52.261 21.288 51.125 21.288ZM59.8936 21L64.5256 14.472L60.0856 8.232H62.9176L66.0616 12.816L69.1096 8.232H72.0136L67.6216 14.52L72.2056 21H69.3736L66.0856 16.128L62.7736 21H59.8936ZM74.2124 21V3.96H77.5004L85.3724 17.856V3.96H87.9644V21H84.5564L76.8044 7.416V21H74.2124ZM96.8529 21.288C95.6049 21.288 94.5249 21.016 93.6129 20.472C92.7169 19.928 92.0209 19.152 91.5249 18.144C91.0449 17.136 90.8049 15.96 90.8049 14.616C90.8049 13.272 91.0449 12.104 91.5249 11.112C92.0209 10.104 92.7169 9.328 93.6129 8.784C94.5089 8.224 95.5649 7.944 96.7809 7.944C97.9329 7.944 98.9489 8.216 99.8289 8.76C100.709 9.288 101.389 10.056 101.869 11.064C102.365 12.072 102.613 13.288 102.613 14.712V15.36H93.4449C93.5089 16.608 93.8369 17.544 94.4289 18.168C95.0369 18.792 95.8529 19.104 96.8769 19.104C97.6289 19.104 98.2529 18.928 98.7489 18.576C99.2449 18.224 99.5889 17.752 99.7809 17.16L102.421 17.328C102.085 18.512 101.421 19.472 100.429 20.208C99.4529 20.928 98.2609 21.288 96.8529 21.288ZM93.4449 13.44H99.9249C99.8449 12.304 99.5169 11.464 98.9409 10.92C98.3809 10.376 97.6609 10.104 96.7809 10.104C95.8689 10.104 95.1169 10.392 94.5249 10.968C93.9489 11.528 93.5889 12.352 93.4449 13.44ZM110.111 21.288C108.911 21.288 107.895 21.104 107.063 20.736C106.247 20.368 105.615 19.864 105.167 19.224C104.719 18.568 104.463 17.816 104.399 16.968L107.015 16.848C107.143 17.552 107.447 18.112 107.927 18.528C108.407 18.944 109.135 19.152 110.111 19.152C110.911 19.152 111.543 19.024 112.007 18.768C112.471 18.512 112.703 18.104 112.703 17.544C112.703 17.24 112.623 16.984 112.463 16.776C112.319 16.552 112.031 16.368 111.599 16.224C111.167 16.064 110.527 15.912 109.679 15.768C108.415 15.528 107.423 15.248 106.703 14.928C105.983 14.608 105.471 14.2 105.167 13.704C104.863 13.208 104.711 12.608 104.711 11.904C104.711 10.736 105.143 9.784 106.007 9.048C106.887 8.312 108.151 7.944 109.799 7.944C110.903 7.944 111.831 8.136 112.583 8.52C113.335 8.888 113.919 9.392 114.335 10.032C114.767 10.656 115.039 11.36 115.151 12.144L112.535 12.288C112.455 11.84 112.295 11.456 112.055 11.136C111.831 10.8 111.527 10.544 111.143 10.368C110.759 10.176 110.303 10.08 109.775 10.08C108.959 10.08 108.351 10.24 107.951 10.56C107.551 10.88 107.351 11.296 107.351 11.808C107.351 12.192 107.439 12.504 107.615 12.744C107.807 12.984 108.111 13.184 108.527 13.344C108.943 13.488 109.495 13.616 110.183 13.728C111.511 13.952 112.551 14.232 113.303 14.568C114.055 14.888 114.583 15.288 114.887 15.768C115.191 16.248 115.343 16.832 115.343 17.52C115.343 18.32 115.119 19 114.671 19.56C114.223 20.12 113.607 20.552 112.823 20.856C112.039 21.144 111.135 21.288 110.111 21.288ZM122.344 21C121.128 21 120.232 20.72 119.656 20.16C119.08 19.6 118.792 18.728 118.792 17.544V5.232H121.336V17.352C121.336 17.944 121.464 18.352 121.72 18.576C121.976 18.8 122.368 18.912 122.896 18.912H124.72V21H122.344ZM116.848 10.32V8.232H124.72V10.32H116.848Z" fill="black"/>
</svg>
